<?xml version="1.0" standalone="no"?>
<!DOCTYPE svg PUBLIC "-//W3C//DTD SVG 20010904//EN"
 "http://www.w3.org/TR/2001/REC-SVG-20010904/DTD/svg10.dtd">
<svg version="1.0" xmlns="http://www.w3.org/2000/svg"
 width="512.000000pt" height="512.000000pt" viewBox="0 0 512.000000 512.000000"
 preserveAspectRatio="xMidYMid meet">
<metadata>
Created by potrace 1.14, written by Peter Selinger 2001-2017
</metadata>
<g transform="translate(0.000000,512.000000) scale(0.100000,-0.100000)"
fill="#000000" stroke="none">
<path d="M416 5064 c-156 -38 -291 -159 -350 -312 l-21 -57 -3 -2115 c-2
-1912 -1 -2120 14 -2169 47 -161 160 -282 320 -343 l59 -23 2080 -3 c1514 -2
2099 0 2148 9 196 32 361 191 402 386 22 101 22 4144 1 4244 -37 172 -154 308
-322 371 l-59 23 -2105 2 c-1793 1 -2114 -1 -2164 -13z m1740 -335 c188 -69
319 -217 359 -404 22 -102 22 -1177 0 -1279 -21 -99 -63 -182 -129 -253 -66
-72 -131 -116 -224 -152 l-67 -26 -611 -3 c-678 -3 -696 -2 -822 60 -127 62
-240 203 -277 343 -22 86 -22 1252 0 1335 56 211 235 371 450 400 33 4 328 7
655 7 l595 -2 71 -26z m1654 -539 c78 -21 147 -98 175 -194 39 -131 39 -371 0
-503 -23 -78 -73 -143 -135 -175 -65 -35 -171 -39 -235 -9 -123 56 -171 155
-182 377 -13 268 44 431 171 490 56 26 143 32 206 14z m-2180 -2630 l0 -280
55 0 55 0 0 -75 0 -75 -55 0 -55 0 0 -90 0 -90 -85 0 -85 0 0 90 0 90 -185 0
-185 0 0 74 0 75 171 248 c95 136 183 263 196 281 23 31 26 32 99 32 l74 0 0
-280z m2223 256 c95 -34 149 -113 149 -216 0 -70 -33 -138 -81 -166 l-29 -17
42 -29 c26 -17 53 -47 70 -79 25 -45 28 -58 24 -127 -6 -120 -51 -191 -153
-238 -40 -19 -67 -24 -132 -24 -190 0 -302 98 -303 266 0 94 33 164 98 205 25
16 41 29 35 29 -22 0 -76 55 -94 95 -24 51 -24 129 0 181 21 46 83 102 132
120 46 17 195 16 242 0z"/>
<path d="M1301 4193 c-66 -24 -136 -97 -155 -162 -22 -75 -21 -91 7 -91 12 0
52 -3 90 -7 66 -6 67 -5 67 18 0 40 35 86 75 99 98 32 173 -44 144 -148 -11
-40 -37 -71 -179 -218 -173 -176 -219 -243 -236 -336 l-6 -38 306 0 306 0 0
85 0 85 -177 0 -178 1 141 137 c117 114 147 148 174 205 56 115 44 233 -32
309 -56 56 -100 72 -208 75 -68 2 -107 -2 -139 -14z"/>
<path d="M3672 4025 c-43 -36 -56 -100 -55 -285 0 -176 11 -230 54 -273 25
-24 35 -28 62 -23 77 15 102 105 95 344 -3 123 -7 155 -25 195 -32 69 -80 85
-131 42z"/>
<path d="M1358 1428 l-98 -143 96 -3 c53 -1 98 -1 101 1 2 2 2 68 1 146 l-3
142 -97 -143z"/>
<path d="M3656 1649 c-28 -33 -34 -76 -14 -112 18 -35 40 -46 91 -47 66 0 97
30 97 95 0 65 -31 95 -99 95 -43 0 -53 -4 -75 -31z"/>
<path d="M3667 1319 c-29 -17 -47 -65 -47 -125 0 -50 3 -59 34 -90 30 -30 40
-34 84 -34 45 0 53 4 81 35 27 31 31 43 31 95 0 52 -4 64 -31 95 -28 32 -36
35 -83 35 -28 0 -59 -5 -69 -11z"/>
</g>
</svg>
